<?xml version="1.0" encoding="utf-8"?>
<!-- Generator: Adobe Illustrator 27.5.0, SVG Export Plug-In . SVG Version: 6.00 Build 0)  -->
<svg version="1.1" id="Capa_1" xmlns="http://www.w3.org/2000/svg" xmlns:xlink="http://www.w3.org/1999/xlink" x="0px" y="0px"
	 viewBox="0 0 2000 2000" style="enable-background:new 0 0 2000 2000;" xml:space="preserve">
<style type="text/css">
	.st0{fill:url(#SVGID_1_);}
	.st1{fill:url(#SVGID_00000059992055000452002380000008002256624218613424_);}
	.st2{fill:url(#SVGID_00000064314493329856739900000016384375689175238030_);}
	.st3{fill:#111111;}
	.st4{clip-path:url(#SVGID_00000072258893611064346960000010252589997640669062_);}
	.st5{fill:#686A72;}
	.st6{fill:#0055FF;}
	.st7{fill:url(#SVGID_00000021824484858943741960000014608349714596545184_);}
	.st8{opacity:0.7;}
	.st9{opacity:0.9091;}
	.st10{opacity:0.8182;}
	.st11{opacity:0.7273;}
	.st12{opacity:0.6364;}
	.st13{opacity:0.5455;}
	.st14{opacity:0.4545;}
	.st15{opacity:0.3636;}
	.st16{opacity:0.2727;}
	.st17{opacity:0.1818;}
	.st18{opacity:9.090909e-02;}
	.st19{opacity:0;}
	.st20{fill:#333333;}
	.st21{fill:#6B6B6B;}
	.st22{clip-path:url(#SVGID_00000146475610231767264050000011050906209847642755_);}
	.st23{fill:url(#SVGID_00000088117955554889967650000001441930940512323509_);}
	.st24{opacity:0.3;fill:url(#SVGID_00000151539434274706314950000000262857051475160732_);}
	.st25{fill:url(#SVGID_00000144312391760281213360000014588205101785321366_);}
	.st26{opacity:0.6;fill:url(#SVGID_00000114034432610092033330000010167209649161687208_);}
	.st27{fill:url(#SVGID_00000039854420671532761580000016163542270271822251_);}
	.st28{fill:url(#SVGID_00000105406451382794141860000005008250571228872577_);}
	.st29{opacity:0.4;fill:url(#SVGID_00000158021208404686408190000016887694593365044910_);}
	.st30{fill:url(#SVGID_00000158720512401238306150000011249717654578522267_);}
	.st31{fill:url(#SVGID_00000144337988266986714300000002405258962987279768_);}
	.st32{fill:url(#SVGID_00000036945289255537376810000017993235473017537698_);}
	
		.st33{clip-path:url(#SVGID_00000146475610231767264050000011050906209847642755_);fill:url(#SVGID_00000043418012834568276450000017200750871295433115_);}
	
		.st34{opacity:0.7;clip-path:url(#SVGID_00000146475610231767264050000011050906209847642755_);fill:url(#SVGID_00000140008306164658043560000005131581153486947763_);}
	.st35{fill:#FFFFFF;}
</style>
<g>
	<g>
		<linearGradient id="SVGID_1_" gradientUnits="userSpaceOnUse" x1="1334.2709" y1="257.6024" x2="663.2646" y2="1744.2079">
			<stop  offset="0" style="stop-color:#B1B3B1"/>
			<stop  offset="0.122" style="stop-color:#6F706E"/>
			<stop  offset="0.2341" style="stop-color:#7E7F7E"/>
			<stop  offset="0.4185" style="stop-color:#999999"/>
			<stop  offset="0.5122" style="stop-color:#8A8C89"/>
			<stop  offset="0.6452" style="stop-color:#EAEDE7"/>
			<stop  offset="0.7879" style="stop-color:#E8EBE6"/>
			<stop  offset="1" style="stop-color:#171716"/>
		</linearGradient>
		<circle class="st0" cx="1001.5" cy="994.8" r="817.1"/>
		
			<radialGradient id="SVGID_00000163045866979031281310000016545020410286186147_" cx="1174.3129" cy="1167.7332" r="1436.7134" gradientTransform="matrix(0.35 0 0 0.35 591.9496 586.4521)" gradientUnits="userSpaceOnUse">
			<stop  offset="0.3067" style="stop-color:#58595B"/>
			<stop  offset="1" style="stop-color:#121212"/>
		</radialGradient>
		<path style="fill:url(#SVGID_00000163045866979031281310000016545020410286186147_);" d="M1505.7,995.4
			c0,277.7-225.1,502.7-503.2,502.7c-277.2,0-502.3-225.1-502.3-502.7c0-278,225.1-503.1,502.3-503.1
			C1280.6,492.2,1505.7,717.4,1505.7,995.4z"/>
		
			<linearGradient id="SVGID_00000124883624127373613460000018053066589380640135_" gradientUnits="userSpaceOnUse" x1="1331.7968" y1="265.218" x2="667.7196" y2="1736.472">
			<stop  offset="0" style="stop-color:#969695"/>
			<stop  offset="0.1073" style="stop-color:#B6B6B5"/>
			<stop  offset="0.2242" style="stop-color:#D9D9D7"/>
			<stop  offset="0.3171" style="stop-color:#CACAC8"/>
			<stop  offset="0.5561" style="stop-color:#575756"/>
			<stop  offset="0.8121" style="stop-color:#7B7B7A"/>
			<stop  offset="0.9122" style="stop-color:#575756"/>
			<stop  offset="1" style="stop-color:#383836"/>
		</linearGradient>
		<circle style="fill:url(#SVGID_00000124883624127373613460000018053066589380640135_);" cx="1002.5" cy="994.8" r="808.6"/>
		
			<ellipse transform="matrix(0.7071 -0.7071 0.7071 0.7071 -409.6696 1000.6121)" class="st3" cx="1003" cy="994.8" rx="751.3" ry="751.3"/>
		<g>
			<g>
				<defs>
					<circle id="SVGID_9_" cx="1001.5" cy="993" r="426.2"/>
				</defs>
				<clipPath id="SVGID_00000071520653020370647020000018075906235300669827_">
					<use xlink:href="#SVGID_9_"  style="overflow:visible;"/>
				</clipPath>
				<g style="clip-path:url(#SVGID_00000071520653020370647020000018075906235300669827_);">
					<g>
						<path class="st5" d="M968.2,1463.6c24.2-2.9,48.2-7.7,71.8-14.4c21.9-6.3,43.4-14.2,64.4-23.8
							c-31-10.9-122.4-49.6-205.3-148.4c-59.6-71-100-156.2-123.9-245.4c0,0-1.8,7.5-3.2,21c-1.5,14.6-2.6,36.3-0.4,63.3
							c5.6,69.1,29.5,135.9,65.1,195.1C866.1,1360,908.3,1412,968.2,1463.6z"/>
						
							<image style="overflow:visible;" width="1393" height="1801" xlink:href="6520C983.png"  transform="matrix(0.24 0 0 0.24 770.16 1031.4167)">
						</image>
					</g>
					<g>
						<path class="st5" d="M820.7,1431.6c23.8,4.9,48.1,8,72.7,9c22.7,1,45.6,0.3,68.6-2.2c-25.9-20.2-100.4-85.8-147.7-205.8
							c-34-86.2-45.4-179.9-39.8-272.1c0,0-4.1,6.5-9.7,18.9c-6.1,13.4-14,33.6-20.4,59.9c-16.6,67.3-15,138.2-0.1,205.7
							C756.7,1301,780.3,1363.7,820.7,1431.6z"/>
						
							<image style="overflow:visible;" width="958" height="2003" xlink:href="6520C981.png"  transform="matrix(0.24 0 0 0.24 732.24 960.3768)">
						</image>
					</g>
					<g>
						<path class="st5" d="M706,1366.5c21.5,11.3,44,21,67.3,28.8c21.6,7.2,43.8,12.9,66.5,16.9c-19.3-26.6-72.7-110.3-84.9-238.7
							c-8.8-92.3,6.2-185.4,37.2-272.4c0,0-5.7,5.1-14.6,15.5c-9.6,11.2-22.7,28.4-36.2,51.9c-34.6,60.1-52.7,128.6-57,197.6
							C680.6,1223.3,685.9,1290.1,706,1366.5z"/>
						
							<image style="overflow:visible;" width="654" height="2131" xlink:href="6520C987.png"  transform="matrix(0.24 0 0 0.24 683.04 900.8568)">
						</image>
					</g>
					<g>
						<path class="st5" d="M613.8,1272.1c17.5,16.9,36.5,32.4,56.7,46.3c18.7,12.9,38.5,24.5,59.2,34.7
							c-11.2-30.9-39.3-126.1-15.5-252.9c17.1-91.1,57.3-176.4,111.2-251.5c0,0-6.9,3.3-18.3,10.8c-12.3,8.1-29.7,21-49.2,39.8
							c-49.8,48.2-86.3,109-109.5,174.1C629.1,1127.5,615.7,1193.2,613.8,1272.1z"/>
						
							<image style="overflow:visible;" width="883" height="2102" xlink:href="6520C980.png"  transform="matrix(0.24 0 0 0.24 613.68 848.7768)">
						</image>
					</g>
					<g>
						<path class="st5" d="M551.4,1156c12.2,21.1,26.1,41.2,41.6,60.2c14.4,17.6,30.2,34.2,47.3,49.7
							c-2.2-32.8-2.8-132.1,55.2-247.3c41.7-82.8,104-153.6,176.5-210.8c0,0-7.6,1.3-20.6,5.3c-14,4.4-34.4,12-58.3,24.6
							c-61.2,32.5-113.1,80.8-153.5,136.9C606.1,1021.3,575.1,1080.6,551.4,1156z"/>
						
							<image style="overflow:visible;" width="1337" height="1910" xlink:href="6520C98E.png"  transform="matrix(0.24 0 0 0.24 551.28 807.7368)">
						</image>
					</g>
					<g>
						<path class="st5" d="M523.5,1027c5.9,23.6,13.7,46.8,23.3,69.4c9,20.9,19.5,41.3,31.7,60.9c7-32.1,33.9-127.7,121.5-222.3
							c63-68,142.4-118.8,228-153.7c0,0-7.7-0.9-21.3-0.6c-14.7,0.3-36.4,2-62.8,7.5c-67.8,14.2-131.1,46.3-185.4,89.1
							C613.5,912.8,567.2,961.2,523.5,1027z"/>
						
							<image style="overflow:visible;" width="1686" height="1570" xlink:href="6520C98F.png"  transform="matrix(0.24 0 0 0.24 523.44 780.6168)">
						</image>
					</g>
					<g>
						<path class="st5" d="M532.5,895.4c-0.9,24.3,0.2,48.8,3.2,73.1c2.8,22.6,7.3,45,13.6,67.3c15.6-28.9,67.9-113.3,178.3-179.9
							c79.4-47.9,169.8-74.7,261.6-84.5c0,0-7.1-3-20.3-6.5c-14.2-3.8-35.5-8.2-62.4-10.2c-69.1-5.1-138.8,8.2-202.8,34.2
							C650.6,810.5,592.7,844.2,532.5,895.4z"/>
						
							<image style="overflow:visible;" width="1905" height="1177" xlink:href="6520C982.png"  transform="matrix(0.24 0 0 0.24 532.08 753.4968)">
						</image>
					</g>
					<g>
						<path class="st5" d="M577.6,771.5c-7.6,23.1-13.4,46.9-17.2,71.2c-3.5,22.5-5.4,45.3-5.6,68.4c23-23.5,96.6-90,221.2-123.5
							c89.5-24,183.8-24.8,274.8-8.8c0,0-6-4.8-17.7-11.8c-12.6-7.6-31.8-17.7-57.2-27.1c-65-24.1-135.6-30.6-204.3-23.3
							C714.6,722.6,649.6,738.9,577.6,771.5z"/>
						
							<image style="overflow:visible;" width="2068" height="823" xlink:href="6520C985.png"  transform="matrix(0.24 0 0 0.24 554.64 713.6568)">
						</image>
					</g>
					<g>
						<path class="st5" d="M655.3,664.9c-13.7,20.1-25.8,41.4-36.2,63.6c-9.6,20.6-17.8,42-24.3,64.2
							c28.6-16.2,117.8-59.7,246.8-57.4c92.7,1.7,183.5,27.1,266.5,67.7c0,0-4.4-6.3-13.7-16.3c-10-10.8-25.7-25.8-47.4-41.9
							c-55.8-41.1-121.9-66.9-189.9-79C800.4,655.8,733.5,653.6,655.3,664.9z"/>
						
							<image style="overflow:visible;" width="2140" height="608" xlink:href="6520C986.png"  transform="matrix(0.24 0 0 0.24 594.48 657.2568)">
						</image>
					</g>
					<g>
						<path class="st5" d="M759.4,583.9c-18.7,15.5-36.3,32.6-52.4,51.1c-15,17.1-28.7,35.5-41.2,54.9c32-7.6,129.7-24.8,253,13.2
							c88.6,27.3,168.8,76.9,237.3,138.9c0,0-2.5-7.3-8.7-19.4c-6.6-13.1-17.5-31.9-34-53.4c-42.2-55-98.5-98.1-160.6-128.5
							C901.4,615.5,837.7,594.7,759.4,583.9z"/>
						
							<image style="overflow:visible;" width="2044" height="1076" xlink:href="9DBD1FF0.png"  transform="matrix(0.24 0 0 0.24 665.76 583.8168)">
						</image>
					</g>
					<g>
						<path class="st5" d="M881.9,535c-22.3,9.7-43.9,21.3-64.5,34.6c-19.1,12.3-37.4,26.1-54.8,41.4
							c32.8,1.5,131.5,12.1,239.4,82.8c77.6,50.8,140.9,120.7,189.6,199.2c0,0-0.4-7.7-3-21.1c-2.8-14.4-8-35.5-17.9-60.7
							c-25.3-64.5-67.5-121.5-118.7-168C1009.6,604.6,954.1,567.1,881.9,535z"/>
						
							<image style="overflow:visible;" width="1789" height="1492" xlink:href="9DBD1FF7.png"  transform="matrix(0.24 0 0 0.24 762.48 534.8568)">
						</image>
					</g>
					<g>
						<path class="st5" d="M1013.2,521.9c-24.1,3.2-48.1,8.3-71.6,15.3c-21.8,6.5-43.2,14.7-64.1,24.6
							c31.1,10.5,123,48.1,207.1,145.9c60.5,70.3,102,155,127,243.9c0,0,1.7-7.5,3-21.1c1.4-14.6,2.2-36.3-0.4-63.3
							c-6.5-69-31.2-135.5-67.5-194.3C1116.5,624.2,1073.7,572.7,1013.2,521.9z"/>
						
							<image style="overflow:visible;" width="1411" height="1791" xlink:href="9DBD1FF1.png"  transform="matrix(0.24 0 0 0.24 877.44 521.8968)">
						</image>
					</g>
					<g>
						<path class="st5" d="M1142.9,545.7c-24.1-3.6-48.5-5.4-73-5.1c-22.7,0.2-45.6,2.2-68.4,5.9c27,18.8,104.9,80.3,158.6,197.5
							c38.6,84.3,55,177.1,54.4,269.5c0,0,3.7-6.7,8.7-19.4c5.4-13.7,12.1-34.3,17.2-60.9c12.9-68.1,7.5-138.8-11.1-205.4
							C1213.9,672.6,1187,611.3,1142.9,545.7z"/>
						
							<image style="overflow:visible;" width="1026" height="1972" xlink:href="9DBD1FF3.png"  transform="matrix(0.24 0 0 0.24 1001.28 540.3768)">
						</image>
					</g>
					<g>
						<path class="st5" d="M1261,604.5c-22.1-10.2-45.1-18.6-68.8-25.1c-21.9-6.1-44.4-10.5-67.3-13.3
							c20.7,25.5,78.5,106.2,97.7,233.7c13.8,91.7,3.8,185.5-22.4,274c0,0,5.5-5.4,13.7-16.2c8.9-11.7,21.2-29.6,33.4-53.8
							c31.3-61.9,45.7-131.3,46.2-200.4C1294,746.1,1285.2,679.8,1261,604.5z"/>
						
							<image style="overflow:visible;" width="704" height="2117" xlink:href="9DBD1FEE.png"  transform="matrix(0.24 0 0 0.24 1124.88 566.0568)">
						</image>
					</g>
					<g>
						<path class="st5" d="M1358.1,693.8c-18.4-15.9-38.2-30.3-59.1-43.2c-19.4-11.9-39.7-22.4-61-31.4
							c12.9,30.2,46.1,123.8,29.1,251.7c-12.2,91.9-47.7,179.3-97.4,257.1c0,0,6.8-3.7,17.7-11.8c11.8-8.7,28.5-22.6,47-42.4
							c47.2-50.8,80.3-113.5,99.9-179.7C1350.7,839,1360.5,772.7,1358.1,693.8z"/>
						
							<image style="overflow:visible;" width="787" height="2121" xlink:href="9DBD1FEF.png"  transform="matrix(0.24 0 0 0.24 1169.76 619.0968)">
						</image>
					</g>
					<g>
						<path class="st5" d="M1426.8,806.4c-13.3-20.4-28.3-39.7-44.8-57.9c-15.3-16.8-32-32.6-49.9-47.1c4,32.6,10,131.7-41.7,249.9
							c-37.1,84.9-95.5,159-164.8,220.1c0,0,7.5-1.7,20.3-6.4c13.8-5.1,33.7-13.8,56.9-27.7c59.4-35.7,108.6-86.8,145.8-145
							C1379.4,943.9,1407.2,882.9,1426.8,806.4z"/>
						
							<image style="overflow:visible;" width="1256" height="1960" xlink:href="9DBD2010.png"  transform="matrix(0.24 0 0 0.24 1125.36 701.1768)">
						</image>
					</g>
					<g>
						<path class="st5" d="M1461.5,933.6c-7.1-23.3-16.2-46-27-68c-10.1-20.4-21.7-40.1-34.9-59.1c-5.2,32.5-26.9,129.3-109.3,228.5
							c-59.2,71.3-135.8,126.4-219.3,165.8c0,0,7.7,0.5,21.3-0.6c14.7-1.1,36.2-3.9,62.3-10.9c67-17.9,128.4-53.3,180.3-99
							C1377.9,1052.6,1421.5,1001.7,1461.5,933.6z"/>
						
							<image style="overflow:visible;" width="1628" height="1645" xlink:href="9DBD2013.png"  transform="matrix(0.24 0 0 0.24 1070.88 806.2968)">
						</image>
					</g>
					<g>
						<path class="st5" d="M1459.7,1065.5c-0.4-24.3-2.8-48.7-7.1-72.9c-4-22.4-9.7-44.6-17.2-66.4c-14,29.7-61.7,116.8-168.3,189.3
							c-76.7,52.1-165.5,83.8-256.7,98.6c0,0,7.3,2.6,20.6,5.3c14.4,3,35.9,6.3,62.9,6.8c69.3,1.4,138.2-15.7,200.6-45.1
							C1346.4,1156.7,1402.4,1119.9,1459.7,1065.5z"/>
						
							<image style="overflow:visible;" width="1874" height="1252" xlink:href="9DBD2011.png"  transform="matrix(0.24 0 0 0.24 1010.16 926.0568)">
						</image>
					</g>
					<g>
						<path class="st5" d="M1421.4,1191.7c6.3-23.5,10.8-47.6,13.3-72c2.3-22.6,3-45.5,1.9-68.6c-21.7,24.7-91.6,95.1-214.2,135.3
							c-88.1,28.9-182.2,34.7-273.9,23.6c0,0,6.3,4.5,18.3,10.8c13,6.9,32.7,15.9,58.6,23.9c66.2,20.5,137.1,23.2,205.3,12.2
							C1287.3,1247.9,1351.2,1228.1,1421.4,1191.7z"/>
						
							<image style="overflow:visible;" width="2037" height="885" xlink:href="9DBD2017.png"  transform="matrix(0.24 0 0 0.24 948.24 1051.0968)">
						</image>
					</g>
					<g>
						<path class="st5" d="M1349.6,1302.4c12.6-20.8,23.6-42.7,32.7-65.5c8.5-21.1,15.5-42.9,20.8-65.4
							c-27.7,17.7-114.4,66-243.3,70.7c-92.6,3.3-184.7-17.2-269.8-53.2c0,0,4.8,6,14.6,15.5c10.6,10.2,27,24.4,49.6,39.2
							c57.9,38,125.3,60.3,193.9,68.6C1205.2,1319.2,1272.1,1317.9,1349.6,1302.4z"/>
						
							<image style="overflow:visible;" width="2139" height="605" xlink:href="9DBD200B.png"  transform="matrix(0.24 0 0 0.24 889.92 1171.3368)">
						</image>
					</g>
					<g>
						<path class="st5" d="M1250,1388.8c17.9-16.5,34.5-34.5,49.6-53.9c14-17.9,26.8-37,38.1-57.1c-31.5,9.4-128.2,31.8-253.3,0.5
							c-89.9-22.5-172.7-67.7-244.5-125.8c0,0,2.9,7.1,9.7,18.9c7.3,12.7,19.2,30.9,36.8,51.4c45.1,52.6,103.7,92.6,167.3,119.6
							C1106.5,1365,1171.3,1382.3,1250,1388.8z"/>
						
							<image style="overflow:visible;" width="2075" height="986" xlink:href="9DBD2035.png"  transform="matrix(0.24 0 0 0.24 839.76 1152.3768)">
						</image>
					</g>
					<g>
						<path class="st5" d="M1140.5,1442.8c20.7-9.3,40.6-20.2,59.3-32.8c17.4-11.6,33.8-24.6,49.1-39c-32.1-1-129.1-9.6-241-73.6
							c-80.5-46-149-109.9-204.1-182c0,0,1.2,7.1,5,19.5c4.1,13.3,11.3,32.8,23.4,56c31.1,59.4,77.8,111.7,132.1,154
							C1009.5,1379.9,1067.1,1414,1140.5,1442.8z"/>
						
							<image style="overflow:visible;" width="1855" height="1380" xlink:href="9DBD2037.png"  transform="matrix(0.24 0 0 0.24 803.76 1115.1768)">
						</image>
					</g>
				</g>
			</g>
		</g>
		<circle class="st6" cx="1003" cy="996.8" r="434.4"/>
		
			<radialGradient id="SVGID_00000107570623965270724910000016137406547542551201_" cx="1003.0126" cy="996.824" r="434.3597" gradientUnits="userSpaceOnUse">
			<stop  offset="0.697" style="stop-color:#FFFFFF"/>
			<stop  offset="0.7262" style="stop-color:#F0F0F0"/>
			<stop  offset="0.7828" style="stop-color:#C7C8C8"/>
			<stop  offset="0.861" style="stop-color:#868788"/>
			<stop  offset="0.9569" style="stop-color:#2D2F31"/>
			<stop  offset="1" style="stop-color:#030508"/>
		</radialGradient>
		<circle style="fill:url(#SVGID_00000107570623965270724910000016137406547542551201_);" cx="1003" cy="996.8" r="434.4"/>
		<g class="st8">
			<path d="M1003,210.7c-432.7,0-783.5,350.8-783.5,783.5c0,432.7,350.8,783.5,783.5,783.5c432.7,0,783.5-350.8,783.5-783.5
				C1786.5,561.5,1435.7,210.7,1003,210.7z"/>
			<path class="st9" d="M1003,214.5c-430.7,0-779.8,349.1-779.8,779.8c0,430.7,349.1,779.8,779.8,779.8
				c430.7,0,779.8-349.1,779.8-779.8C1782.8,563.6,1433.7,214.5,1003,214.5z"/>
			<path class="st10" d="M1003,218.2c-428.6,0-776.1,347.5-776.1,776.1c0,428.6,347.5,776.1,776.1,776.1
				c428.6,0,776.1-347.5,776.1-776.1C1779.1,565.6,1431.6,218.2,1003,218.2z"/>
			<path class="st11" d="M1003,221.9c-426.6,0-772.4,345.8-772.4,772.4c0,426.6,345.8,772.4,772.4,772.4
				c426.6,0,772.4-345.8,772.4-772.4C1775.4,567.7,1429.6,221.9,1003,221.9z"/>
			<path class="st12" d="M1003,225.6c-424.5,0-768.6,344.1-768.6,768.6c0,424.5,344.1,768.6,768.6,768.6
				c424.5,0,768.6-344.1,768.6-768.6C1771.7,569.8,1427.5,225.6,1003,225.6z"/>
			<path class="st13" d="M1003,229.4c-422.4,0-764.9,342.5-764.9,764.9c0,422.5,342.5,764.9,764.9,764.9
				c422.5,0,764.9-342.5,764.9-764.9C1767.9,571.8,1425.5,229.4,1003,229.4z"/>
			<path class="st14" d="M1003,233.1c-420.4,0-761.2,340.8-761.2,761.2c0,420.4,340.8,761.2,761.2,761.2
				c420.4,0,761.2-340.8,761.2-761.2C1764.2,573.9,1423.4,233.1,1003,233.1z"/>
			<path class="st15" d="M1003,236.8c-418.3,0-757.5,339.1-757.5,757.5c0,418.3,339.1,757.5,757.5,757.5
				c418.3,0,757.5-339.1,757.5-757.5C1760.5,575.9,1421.4,236.8,1003,236.8z"/>
			<path class="st16" d="M1003,240.5c-416.3,0-753.8,337.5-753.8,753.8c0,416.3,337.5,753.8,753.8,753.8
				c416.3,0,753.8-337.5,753.8-753.8C1756.8,578,1419.3,240.5,1003,240.5z"/>
			<path class="st17" d="M1003,244.2c-414.2,0-750,335.8-750,750c0,414.2,335.8,750,750,750c414.2,0,750-335.8,750-750
				C1753.1,580,1417.3,244.2,1003,244.2z"/>
			<path class="st18" d="M1003,248c-412.2,0-746.3,334.1-746.3,746.3c0,412.2,334.1,746.3,746.3,746.3
				c412.2,0,746.3-334.1,746.3-746.3C1749.3,582.1,1415.2,248,1003,248z"/>
			<path class="st19" d="M1003,251.7c-410.1,0-742.6,332.5-742.6,742.6s332.5,742.6,742.6,742.6c410.1,0,742.6-332.5,742.6-742.6
				S1413.1,251.7,1003,251.7z"/>
		</g>
		<g class="st8">
			<path d="M1003,337.8c-362.5,0-656.4,293.9-656.4,656.4c0,362.5,293.9,656.4,656.4,656.4c362.5,0,656.4-293.9,656.4-656.4
				C1659.5,631.7,1365.6,337.8,1003,337.8z"/>
			<path class="st9" d="M1003,340.9c-360.8,0-653.3,292.5-653.3,653.3c0,360.8,292.5,653.3,653.3,653.3
				c360.8,0,653.3-292.5,653.3-653.3C1656.3,633.4,1363.8,340.9,1003,340.9z"/>
			<path class="st10" d="M1003,344.1c-359.1,0-650.2,291.1-650.2,650.2c0,359.1,291.1,650.2,650.2,650.2
				c359.1,0,650.2-291.1,650.2-650.2C1653.2,635.2,1362.1,344.1,1003,344.1z"/>
			<path class="st11" d="M1003,347.2c-357.4,0-647.1,289.7-647.1,647.1c0,357.4,289.7,647.1,647.1,647.1
				c357.4,0,647.1-289.7,647.1-647.1C1650.1,636.9,1360.4,347.2,1003,347.2z"/>
			<path class="st12" d="M1003,350.3c-355.7,0-644,288.3-644,644c0,355.7,288.3,644,644,644c355.7,0,644-288.3,644-644
				C1647,638.6,1358.7,350.3,1003,350.3z"/>
			<path class="st13" d="M1003,353.4c-353.9,0-640.9,286.9-640.9,640.9c0,353.9,286.9,640.9,640.9,640.9
				c353.9,0,640.9-286.9,640.9-640.9C1643.9,640.3,1357,353.4,1003,353.4z"/>
			<path class="st14" d="M1003,356.5c-352.2,0-637.7,285.5-637.7,637.7c0,352.2,285.5,637.7,637.7,637.7
				c352.2,0,637.7-285.5,637.7-637.7C1640.8,642.1,1355.2,356.5,1003,356.5z"/>
			<path class="st15" d="M1003,359.6c-350.5,0-634.6,284.1-634.6,634.6c0,350.5,284.1,634.6,634.6,634.6
				c350.5,0,634.6-284.1,634.6-634.6C1637.6,643.8,1353.5,359.6,1003,359.6z"/>
			<path class="st16" d="M1003,362.8c-348.8,0-631.5,282.7-631.5,631.5c0,348.8,282.7,631.5,631.5,631.5
				c348.8,0,631.5-282.7,631.5-631.5C1634.5,645.5,1351.8,362.8,1003,362.8z"/>
			<path class="st17" d="M1003,365.9c-347,0-628.4,281.3-628.4,628.4c0,347.1,281.3,628.4,628.4,628.4
				c347.1,0,628.4-281.3,628.4-628.4C1631.4,647.2,1350.1,365.9,1003,365.9z"/>
			<path class="st18" d="M1003,369c-345.3,0-625.3,279.9-625.3,625.3c0,345.3,280,625.3,625.3,625.3
				c345.3,0,625.3-279.9,625.3-625.3C1628.3,648.9,1348.3,369,1003,369z"/>
			<path class="st19" d="M1003,372.1c-343.6,0-622.2,278.5-622.2,622.2c0,343.6,278.6,622.2,622.2,622.2
				c343.6,0,622.2-278.5,622.2-622.2C1625.2,650.7,1346.6,372.1,1003,372.1z"/>
		</g>
		<g class="st8">
			<path d="M1003,324.8c-369.7,0-669.5,299.7-669.5,669.5c0,369.7,299.7,669.5,669.5,669.5c369.7,0,669.5-299.7,669.5-669.5
				C1672.5,624.5,1372.7,324.8,1003,324.8z"/>
			<path class="st9" d="M1003,333c-365.2,0-661.3,296.1-661.3,661.3c0,365.2,296.1,661.3,661.3,661.3
				c365.2,0,661.3-296.1,661.3-661.3C1664.3,629.1,1368.2,333,1003,333z"/>
			<path class="st10" d="M1003,341.2c-360.7,0-653.1,292.4-653.1,653.1c0,360.7,292.4,653.1,653.1,653.1
				c360.7,0,653.1-292.4,653.1-653.1C1656.1,633.6,1363.7,341.2,1003,341.2z"/>
			<path class="st11" d="M1003,349.4c-356.1,0-644.9,288.7-644.9,644.9c0,356.1,288.7,644.9,644.9,644.9
				c356.2,0,644.9-288.7,644.9-644.9C1647.9,638.1,1359.2,349.4,1003,349.4z"/>
			<path class="st12" d="M1003,357.6c-351.6,0-636.7,285-636.7,636.7c0,351.6,285.1,636.7,636.7,636.7
				c351.6,0,636.7-285,636.7-636.7C1639.7,642.6,1354.6,357.6,1003,357.6z"/>
			<path class="st13" d="M1003,365.8c-347.1,0-628.5,281.4-628.5,628.5c0,347.1,281.4,628.5,628.5,628.5
				c347.1,0,628.5-281.4,628.5-628.5C1631.5,647.2,1350.1,365.8,1003,365.8z"/>
			<path class="st14" d="M1003,374c-342.6,0-620.3,277.7-620.3,620.3c0,342.6,277.7,620.3,620.3,620.3
				c342.6,0,620.3-277.7,620.3-620.3C1623.3,651.7,1345.6,374,1003,374z"/>
			<path class="st15" d="M1003,382.2c-338,0-612.1,274-612.1,612.1c0,338,274,612.1,612.1,612.1c338,0,612.1-274,612.1-612.1
				C1615.1,656.2,1341.1,382.2,1003,382.2z"/>
			<path class="st16" d="M1003,390.4c-333.5,0-603.9,270.4-603.9,603.9c0,333.5,270.4,603.9,603.9,603.9
				c333.5,0,603.9-270.4,603.9-603.9C1606.9,660.8,1336.5,390.4,1003,390.4z"/>
			<path class="st17" d="M1003,398.6c-329,0-595.7,266.7-595.7,595.7c0,329,266.7,595.7,595.7,595.7c329,0,595.7-266.7,595.7-595.7
				C1598.7,665.3,1332,398.6,1003,398.6z"/>
			<path class="st18" d="M1003,406.8c-324.5,0-587.5,263-587.5,587.5c0,324.5,263,587.5,587.5,587.5c324.5,0,587.5-263,587.5-587.5
				C1590.5,669.8,1327.5,406.8,1003,406.8z"/>
			<path class="st19" d="M1003,415c-319.9,0-579.3,259.4-579.3,579.3c0,319.9,259.4,579.3,579.3,579.3
				c319.9,0,579.3-259.4,579.3-579.3C1582.3,674.3,1323,415,1003,415z"/>
		</g>
		<g>
			<path class="st20" d="M1003,1564.7c-152.4,0-295.6-59.3-403.3-167.1c-107.7-107.7-167.1-251-167.1-403.3
				c0-152.4,59.3-295.6,167.1-403.3c107.7-107.7,251-167.1,403.3-167.1c152.4,0,295.6,59.3,403.3,167.1
				c107.7,107.7,167.1,251,167.1,403.3s-59.3,295.6-167.1,403.3C1298.6,1505.3,1155.4,1564.7,1003,1564.7z M1003,466.8
				c-290.8,0-527.4,236.6-527.4,527.4c0,290.8,236.6,527.4,527.4,527.4c290.8,0,527.4-236.6,527.4-527.4
				C1530.4,703.4,1293.8,466.8,1003,466.8z"/>
		</g>
		<g>
			<path class="st21" d="M1003,1524.6c-141.6,0-274.8-55.2-375-155.3c-100.2-100.2-155.3-233.3-155.3-375
				c0-141.6,55.2-274.8,155.3-375C728.2,519.1,861.4,464,1003,464c141.6,0,274.8,55.2,375,155.3s155.3,233.3,155.3,375
				s-55.2,274.8-155.3,375C1277.8,1469.4,1144.7,1524.6,1003,1524.6z M1003,534.9c-253.3,0-459.3,206.1-459.3,459.3
				s206.1,459.3,459.3,459.3c253.3,0,459.3-206.1,459.3-459.3S1256.3,534.9,1003,534.9z"/>
		</g>
		<g class="st8">
			<path d="M1003,419.1c-317.7,0-575.2,257.5-575.2,575.2c0,317.7,257.5,575.2,575.2,575.2c317.7,0,575.2-257.5,575.2-575.2
				C1578.2,676.6,1320.7,419.1,1003,419.1z"/>
			<path class="st9" d="M1003,421.8c-316.1,0-572.4,256.3-572.4,572.4c0,316.1,256.3,572.4,572.4,572.4
				c316.2,0,572.4-256.3,572.4-572.4C1575.5,678.1,1319.2,421.8,1003,421.8z"/>
			<path class="st10" d="M1003,424.6c-314.6,0-569.7,255.1-569.7,569.7c0,314.6,255.1,569.7,569.7,569.7
				c314.6,0,569.7-255.1,569.7-569.7C1572.7,679.6,1317.7,424.6,1003,424.6z"/>
			<path class="st11" d="M1003,427.3c-313.1,0-567,253.8-567,567c0,313.1,253.9,567,567,567c313.1,0,567-253.8,567-567
				C1570,681.1,1316.1,427.3,1003,427.3z"/>
			<path class="st12" d="M1003,430c-311.6,0-564.3,252.6-564.3,564.3c0,311.6,252.6,564.3,564.3,564.3
				c311.6,0,564.3-252.6,564.3-564.3C1567.3,682.6,1314.6,430,1003,430z"/>
			<path class="st13" d="M1003,432.8c-310.1,0-561.5,251.4-561.5,561.5c0,310.1,251.4,561.5,561.5,561.5
				c310.1,0,561.5-251.4,561.5-561.5C1564.5,684.1,1313.1,432.8,1003,432.8z"/>
			<path class="st14" d="M1003,435.5c-308.6,0-558.8,250.2-558.8,558.8c0,308.6,250.2,558.8,558.8,558.8
				c308.6,0,558.8-250.2,558.8-558.8C1561.8,685.7,1311.6,435.5,1003,435.5z"/>
			<path class="st15" d="M1003,438.2c-307.1,0-556.1,249-556.1,556.1c0,307.1,249,556.1,556.1,556.1c307.1,0,556.1-249,556.1-556.1
				C1559.1,687.2,1310.1,438.2,1003,438.2z"/>
			<path class="st16" d="M1003,440.9c-305.6,0-553.3,247.7-553.3,553.3c0,305.6,247.7,553.3,553.3,553.3
				c305.6,0,553.3-247.7,553.3-553.3C1556.3,688.7,1308.6,440.9,1003,440.9z"/>
			<path class="st17" d="M1003,443.7c-304.1,0-550.6,246.5-550.6,550.6c0,304.1,246.5,550.6,550.6,550.6
				c304.1,0,550.6-246.5,550.6-550.6C1553.6,690.2,1307.1,443.7,1003,443.7z"/>
			<path class="st18" d="M1003,446.4c-302.6,0-547.9,245.3-547.9,547.9c0,302.6,245.3,547.9,547.9,547.9
				c302.6,0,547.9-245.3,547.9-547.9C1550.9,691.7,1305.6,446.4,1003,446.4z"/>
			<path class="st19" d="M1003,449.1c-301.1,0-545.1,244.1-545.1,545.1c0,301.1,244.1,545.1,545.1,545.1
				c301.1,0,545.1-244.1,545.1-545.1C1548.1,693.2,1304.1,449.1,1003,449.1z"/>
		</g>
		<g class="st8">
			<path d="M1003,466.4c-291.5,0-527.9,236.3-527.9,527.9c0,291.5,236.4,527.9,527.9,527.9c291.5,0,527.9-236.3,527.9-527.9
				C1530.9,702.7,1294.6,466.4,1003,466.4z"/>
			<path class="st9" d="M1003,468.9c-290.2,0-525.4,235.2-525.4,525.4c0,290.2,235.2,525.4,525.4,525.4
				c290.2,0,525.4-235.2,525.4-525.4C1528.4,704.1,1293.2,468.9,1003,468.9z"/>
			<path class="st10" d="M1003,471.4c-288.8,0-522.9,234.1-522.9,522.9c0,288.8,234.1,522.9,522.9,522.9
				c288.8,0,522.9-234.1,522.9-522.9C1525.9,705.5,1291.8,471.4,1003,471.4z"/>
			<path class="st11" d="M1003,473.9c-287.4,0-520.4,233-520.4,520.4c0,287.4,233,520.4,520.4,520.4c287.4,0,520.4-233,520.4-520.4
				C1523.4,706.9,1290.4,473.9,1003,473.9z"/>
			<path class="st12" d="M1003,476.4c-286,0-517.9,231.9-517.9,517.9c0,286,231.9,517.9,517.9,517.9c286,0,517.9-231.9,517.9-517.9
				C1520.9,708.3,1289,476.4,1003,476.4z"/>
			<path class="st13" d="M1003,478.9c-284.6,0-515.4,230.7-515.4,515.4c0,284.6,230.7,515.4,515.4,515.4
				c284.6,0,515.4-230.7,515.4-515.4C1518.4,709.6,1287.6,478.9,1003,478.9z"/>
			<path class="st14" d="M1003,481.4c-283.2,0-512.9,229.6-512.9,512.9c0,283.2,229.6,512.9,512.9,512.9
				c283.2,0,512.9-229.6,512.9-512.9C1515.9,711,1286.3,481.4,1003,481.4z"/>
			<path class="st15" d="M1003,483.9c-281.8,0-510.3,228.5-510.3,510.3c0,281.9,228.5,510.3,510.3,510.3
				c281.9,0,510.3-228.5,510.3-510.3C1513.4,712.4,1284.9,483.9,1003,483.9z"/>
			<path class="st16" d="M1003,486.4c-280.5,0-507.8,227.4-507.8,507.8c0,280.5,227.4,507.8,507.8,507.8
				c280.5,0,507.8-227.4,507.8-507.8C1510.9,713.8,1283.5,486.4,1003,486.4z"/>
			<path class="st17" d="M1003,488.9c-279.1,0-505.3,226.2-505.3,505.3c0,279.1,226.3,505.3,505.3,505.3
				c279.1,0,505.3-226.2,505.3-505.3C1508.3,715.2,1282.1,488.9,1003,488.9z"/>
			<path class="st18" d="M1003,491.4c-277.7,0-502.8,225.1-502.8,502.8c0,277.7,225.1,502.8,502.8,502.8
				c277.7,0,502.8-225.1,502.8-502.8C1505.8,716.6,1280.7,491.4,1003,491.4z"/>
			<path class="st19" d="M1003,494c-276.3,0-500.3,224-500.3,500.3s224,500.3,500.3,500.3c276.3,0,500.3-224,500.3-500.3
				S1279.3,494,1003,494z"/>
		</g>
		<g class="st8">
			<path d="M1003,487.2c-280,0-507,227-507,507c0,280,227,507,507,507c280,0,507-227,507-507C1510,714.2,1283,487.2,1003,487.2z"/>
			<path class="st9" d="M1003,489.7c-278.7,0-504.6,225.9-504.6,504.6c0,278.7,225.9,504.6,504.6,504.6
				c278.7,0,504.6-225.9,504.6-504.6C1507.6,715.6,1281.7,489.7,1003,489.7z"/>
			<path class="st10" d="M1003,492.1c-277.4,0-502.2,224.8-502.2,502.2c0,277.4,224.9,502.2,502.2,502.2
				c277.4,0,502.2-224.9,502.2-502.2C1505.2,716.9,1280.4,492.1,1003,492.1z"/>
			<path class="st11" d="M1003,494.5c-276,0-499.8,223.8-499.8,499.8c0,276,223.8,499.8,499.8,499.8c276,0,499.8-223.8,499.8-499.8
				C1502.8,718.2,1279,494.5,1003,494.5z"/>
			<path class="st12" d="M1003,496.9c-274.7,0-497.4,222.7-497.4,497.4c0,274.7,222.7,497.4,497.4,497.4
				c274.7,0,497.4-222.7,497.4-497.4C1500.4,719.6,1277.7,496.9,1003,496.9z"/>
			<path class="st13" d="M1003,499.3c-273.4,0-495,221.6-495,495c0,273.4,221.6,495,495,495c273.4,0,495-221.6,495-495
				C1498,720.9,1276.4,499.3,1003,499.3z"/>
			<path class="st14" d="M1003,501.7c-272,0-492.6,220.5-492.6,492.6c0,272,220.5,492.6,492.6,492.6c272,0,492.6-220.5,492.6-492.6
				C1495.6,722.2,1275.1,501.7,1003,501.7z"/>
			<path class="st15" d="M1003,504.1c-270.7,0-490.2,219.5-490.2,490.2c0,270.7,219.5,490.2,490.2,490.2
				c270.7,0,490.2-219.5,490.2-490.2C1493.2,723.6,1273.7,504.1,1003,504.1z"/>
			<path class="st16" d="M1003,506.5c-269.4,0-487.8,218.4-487.8,487.8c0,269.4,218.4,487.8,487.8,487.8
				c269.4,0,487.8-218.4,487.8-487.8C1490.8,724.9,1272.4,506.5,1003,506.5z"/>
			<path class="st17" d="M1003,508.9c-268.1,0-485.4,217.3-485.4,485.4c0,268.1,217.3,485.4,485.4,485.4
				c268.1,0,485.4-217.3,485.4-485.4C1488.4,726.2,1271.1,508.9,1003,508.9z"/>
			<path class="st18" d="M1003,511.3c-266.7,0-483,216.2-483,483c0,266.7,216.2,483,483,483c266.7,0,483-216.2,483-483
				C1486,727.5,1269.7,511.3,1003,511.3z"/>
			<path class="st19" d="M1003,513.7c-265.4,0-480.5,215.1-480.5,480.5s215.2,480.5,480.5,480.5c265.4,0,480.5-215.1,480.5-480.5
				S1268.4,513.7,1003,513.7z"/>
		</g>
		<g class="st8">
			<path d="M1003,503.2c-271.2,0-491,219.8-491,491c0,271.2,219.9,491,491,491c271.2,0,491-219.8,491-491
				C1494,723.1,1274.2,503.2,1003,503.2z"/>
			<path class="st9" d="M1003,505.6c-269.9,0-488.7,218.8-488.7,488.7c0,269.9,218.8,488.7,488.7,488.7
				c269.9,0,488.7-218.8,488.7-488.7C1491.7,724.4,1272.9,505.6,1003,505.6z"/>
			<path class="st10" d="M1003,507.9c-268.6,0-486.4,217.8-486.4,486.4c0,268.6,217.8,486.4,486.4,486.4
				c268.6,0,486.4-217.8,486.4-486.4C1489.4,725.7,1271.6,507.9,1003,507.9z"/>
			<path class="st11" d="M1003,510.2c-267.3,0-484,216.7-484,484c0,267.3,216.7,484,484,484c267.3,0,484-216.7,484-484
				C1487.1,726.9,1270.3,510.2,1003,510.2z"/>
			<path class="st12" d="M1003,512.6c-266,0-481.7,215.7-481.7,481.7c0,266,215.7,481.7,481.7,481.7c266,0,481.7-215.7,481.7-481.7
				C1484.7,728.2,1269.1,512.6,1003,512.6z"/>
			<path class="st13" d="M1003,514.9c-264.7,0-479.4,214.6-479.4,479.4c0,264.8,214.6,479.4,479.4,479.4
				c264.8,0,479.4-214.6,479.4-479.4C1482.4,729.5,1267.8,514.9,1003,514.9z"/>
			<path class="st14" d="M1003,517.2c-263.5,0-477,213.6-477,477c0,263.5,213.6,477,477,477c263.5,0,477-213.6,477-477
				C1480.1,730.8,1266.5,517.2,1003,517.2z"/>
			<path class="st15" d="M1003,519.6c-262.2,0-474.7,212.5-474.7,474.7c0,262.2,212.5,474.7,474.7,474.7
				c262.2,0,474.7-212.5,474.7-474.7C1477.7,732.1,1265.2,519.6,1003,519.6z"/>
			<path class="st16" d="M1003,521.9c-260.9,0-472.4,211.5-472.4,472.4c0,260.9,211.5,472.4,472.4,472.4
				c260.9,0,472.4-211.5,472.4-472.4C1475.4,733.4,1263.9,521.9,1003,521.9z"/>
			<path class="st17" d="M1003,524.2c-259.6,0-470,210.4-470,470.1c0,259.6,210.5,470.1,470,470.1c259.6,0,470.1-210.4,470.1-470.1
				C1473.1,734.7,1262.6,524.2,1003,524.2z"/>
			<path class="st18" d="M1003,526.6c-258.3,0-467.7,209.4-467.7,467.7c0,258.3,209.4,467.7,467.7,467.7
				c258.3,0,467.7-209.4,467.7-467.7C1470.7,736,1261.3,526.6,1003,526.6z"/>
			<path class="st19" d="M1003,528.9c-257,0-465.4,208.4-465.4,465.4S746,1459.7,1003,1459.7c257,0,465.4-208.4,465.4-465.4
				S1260,528.9,1003,528.9z"/>
		</g>
		<g class="st8">
			<path d="M1003,516.2c-264,0-478,214-478,478c0,264,214,478,478,478c264,0,478-214,478-478C1481,730.3,1267,516.2,1003,516.2z"/>
			<path class="st9" d="M1003,518.5c-262.7,0-475.8,213-475.8,475.8c0,262.8,213,475.8,475.8,475.8c262.8,0,475.8-213,475.8-475.8
				C1478.8,731.5,1265.8,518.5,1003,518.5z"/>
			<path class="st10" d="M1003,520.8c-261.5,0-473.5,212-473.5,473.5c0,261.5,212,473.5,473.5,473.5c261.5,0,473.5-212,473.5-473.5
				C1476.5,732.8,1264.5,520.8,1003,520.8z"/>
			<path class="st11" d="M1003,523.1c-260.2,0-471.2,211-471.2,471.2c0,260.2,211,471.2,471.2,471.2c260.2,0,471.2-211,471.2-471.2
				C1474.2,734,1263.3,523.1,1003,523.1z"/>
			<path class="st12" d="M1003,525.3c-259,0-469,210-469,469c0,259,210,469,469,469c259,0,469-210,469-469
				C1472,735.3,1262,525.3,1003,525.3z"/>
			<path class="st13" d="M1003,527.6c-257.7,0-466.7,208.9-466.7,466.7c0,257.7,208.9,466.7,466.7,466.7
				c257.7,0,466.7-208.9,466.7-466.7C1469.7,736.5,1260.8,527.6,1003,527.6z"/>
			<path class="st14" d="M1003,529.9c-256.5,0-464.4,207.9-464.4,464.4c0,256.5,207.9,464.4,464.4,464.4
				c256.5,0,464.4-207.9,464.4-464.4C1467.4,737.8,1259.5,529.9,1003,529.9z"/>
			<path class="st15" d="M1003,532.1c-255.2,0-462.1,206.9-462.1,462.1c0,255.2,206.9,462.1,462.1,462.1
				c255.2,0,462.1-206.9,462.1-462.1C1465.2,739,1258.2,532.1,1003,532.1z"/>
			<path class="st16" d="M1003,534.4c-254,0-459.9,205.9-459.9,459.9c0,254,205.9,459.9,459.9,459.9c254,0,459.9-205.9,459.9-459.9
				C1462.9,740.3,1257,534.4,1003,534.4z"/>
			<path class="st17" d="M1003,536.7c-252.7,0-457.6,204.9-457.6,457.6c0,252.7,204.9,457.6,457.6,457.6
				c252.7,0,457.6-204.9,457.6-457.6C1460.6,741.5,1255.7,536.7,1003,536.7z"/>
			<path class="st18" d="M1003,538.9c-251.5,0-455.3,203.9-455.3,455.3c0,251.5,203.9,455.3,455.3,455.3
				c251.5,0,455.3-203.9,455.3-455.3C1458.3,742.8,1254.5,538.9,1003,538.9z"/>
			<path class="st19" d="M1003,541.2C752.8,541.2,550,744.1,550,994.3s202.8,453.1,453.1,453.1c250.2,0,453.1-202.8,453.1-453.1
				S1253.2,541.2,1003,541.2z"/>
		</g>
		<g>
			<defs>
				
					<ellipse id="SVGID_8_" transform="matrix(0.7071 -0.7071 0.7071 0.7071 -411.4245 1001.3407)" cx="1003" cy="997.3" rx="626.1" ry="626.1"/>
			</defs>
			<clipPath id="SVGID_00000027590253902246958400000013864958087859875720_">
				<use xlink:href="#SVGID_8_"  style="overflow:visible;"/>
			</clipPath>
			<g style="clip-path:url(#SVGID_00000027590253902246958400000013864958087859875720_);">
				
					<radialGradient id="SVGID_00000123427088403360595810000014215001353752661947_" cx="1114.3665" cy="648.534" r="582.433" gradientUnits="userSpaceOnUse">
					<stop  offset="0" style="stop-color:#2400AA"/>
					<stop  offset="9.401786e-02" style="stop-color:#1D008A"/>
					<stop  offset="0.2384" style="stop-color:#140060"/>
					<stop  offset="0.3858" style="stop-color:#0D003E"/>
					<stop  offset="0.5346" style="stop-color:#070023"/>
					<stop  offset="0.6852" style="stop-color:#03000F"/>
					<stop  offset="0.8388" style="stop-color:#010004"/>
					<stop  offset="1" style="stop-color:#000000"/>
				</radialGradient>
				<path style="fill:url(#SVGID_00000123427088403360595810000014215001353752661947_);" d="M531.9,648.6
					c0,321.7,260.8,582.4,582.4,582.4c321.7,0,582.4-260.7,582.4-582.4c0-321.7-260.8-582.4-582.4-582.4
					C792.7,66.1,531.9,326.9,531.9,648.6z"/>
				
					<radialGradient id="SVGID_00000132055448733392234900000002071416271500083864_" cx="-8589.4971" cy="-13339.6934" r="2327.3394" gradientTransform="matrix(0.245 -0.275 0.2115 0.1885 5365.3896 916.6146)" gradientUnits="userSpaceOnUse">
					<stop  offset="0" style="stop-color:#EC008C"/>
					<stop  offset="7.647222e-02" style="stop-color:#C5007B"/>
					<stop  offset="0.2198" style="stop-color:#81005F"/>
					<stop  offset="0.3496" style="stop-color:#4B0048"/>
					<stop  offset="0.461" style="stop-color:#240038"/>
					<stop  offset="0.5498" style="stop-color:#0D002E"/>
					<stop  offset="0.6049" style="stop-color:#04002A"/>
					<stop  offset="0.6333" style="stop-color:#030024"/>
					<stop  offset="0.7558" style="stop-color:#020010"/>
					<stop  offset="0.8783" style="stop-color:#000004"/>
					<stop  offset="1" style="stop-color:#000000"/>
				</radialGradient>
				<path style="opacity:0.3;fill:url(#SVGID_00000132055448733392234900000002071416271500083864_);" d="M923.7,460.6
					c233.5,208.1,204.1,621.3-65.9,924.3c-270,303-677.7,380.2-911.2,172.1C-286,1349.8-256,936,14,633
					C284,330,691.1,253.3,923.7,460.6z"/>
				
					<radialGradient id="SVGID_00000037694044115907092480000009316928075194503297_" cx="3570.7754" cy="7816.1748" r="1779.4032" gradientTransform="matrix(0.3486 3.170000e-02 -2.400000e-02 0.2643 201.8138 -1125.0712)" gradientUnits="userSpaceOnUse">
					<stop  offset="0" style="stop-color:#42A11B"/>
					<stop  offset="3.711426e-02" style="stop-color:#3C9118"/>
					<stop  offset="0.1524" style="stop-color:#296511"/>
					<stop  offset="0.2691" style="stop-color:#1B410B"/>
					<stop  offset="0.3854" style="stop-color:#0F2406"/>
					<stop  offset="0.5014" style="stop-color:#071003"/>
					<stop  offset="0.617" style="stop-color:#020401"/>
					<stop  offset="0.7317" style="stop-color:#000000"/>
				</radialGradient>
				<path style="fill:url(#SVGID_00000037694044115907092480000009316928075194503297_);" d="M1645.7,1203.7
					c-20.3,223.1-274,381.9-567.7,355.2c-293.6-26.7-515.2-228.8-494.9-451.9c20.2-222.2,274.5-381,568.2-354.3
					C1444.9,779.5,1665.9,981.5,1645.7,1203.7z"/>
				
					<radialGradient id="SVGID_00000145765089886998132330000005932845122893410435_" cx="1956.064" cy="5912.8589" r="1779.4049" gradientTransform="matrix(0.3486 3.170000e-02 -2.400000e-02 0.2643 201.8138 -1125.0712)" gradientUnits="userSpaceOnUse">
					<stop  offset="0" style="stop-color:#D43500"/>
					<stop  offset="5.580180e-02" style="stop-color:#B82E00"/>
					<stop  offset="0.2044" style="stop-color:#721C00"/>
					<stop  offset="0.3116" style="stop-color:#461100"/>
					<stop  offset="0.3659" style="stop-color:#350D00"/>
					<stop  offset="0.4297" style="stop-color:#240900"/>
					<stop  offset="0.5306" style="stop-color:#100400"/>
					<stop  offset="0.6315" style="stop-color:#040100"/>
					<stop  offset="0.7317" style="stop-color:#000000"/>
				</radialGradient>
				<path style="opacity:0.6;fill:url(#SVGID_00000145765089886998132330000005932845122893410435_);" d="M1128.4,649.5
					c-20.3,223.1-274,381.9-567.7,355.2C267.1,978,45.6,776,65.9,552.9c20.2-222.2,274.5-381,568.2-354.3
					C927.7,225.3,1148.7,427.3,1128.4,649.5z"/>
				
					<radialGradient id="SVGID_00000035518523150938547640000013948908018788131756_" cx="20704.168" cy="-31123.166" r="1795.6989" gradientTransform="matrix(-0.3457 -5.450000e-02 4.880000e-02 -0.3097 9550.4609 -6958.1504)" gradientUnits="userSpaceOnUse">
					<stop  offset="0" style="stop-color:#001E94"/>
					<stop  offset="9.831011e-03" style="stop-color:#001D91"/>
					<stop  offset="0.1743" style="stop-color:#001465"/>
					<stop  offset="0.3405" style="stop-color:#000D41"/>
					<stop  offset="0.5064" style="stop-color:#000724"/>
					<stop  offset="0.6717" style="stop-color:#000310"/>
					<stop  offset="0.8364" style="stop-color:#000104"/>
					<stop  offset="1" style="stop-color:#000000"/>
				</radialGradient>
				<path style="fill:url(#SVGID_00000035518523150938547640000013948908018788131756_);" d="M494.9,1375.9
					c35.2-223.3,301.2-366.4,595.1-320c293.9,46.3,503.5,264.4,468.3,487.7c-35.1,222.4-301.6,365.4-595.5,319
					C668.9,1816.2,459.8,1598.3,494.9,1375.9z"/>
				
					<radialGradient id="SVGID_00000125589525501414816210000017482856652905330572_" cx="17769.4297" cy="-29483.6406" r="1795.6986" gradientTransform="matrix(-0.3457 -5.450000e-02 4.880000e-02 -0.3097 9550.4609 -6958.1504)" gradientUnits="userSpaceOnUse">
					<stop  offset="0" style="stop-color:#001E94"/>
					<stop  offset="9.831011e-03" style="stop-color:#001D91"/>
					<stop  offset="0.1743" style="stop-color:#001465"/>
					<stop  offset="0.3405" style="stop-color:#000D41"/>
					<stop  offset="0.5064" style="stop-color:#000724"/>
					<stop  offset="0.6717" style="stop-color:#000310"/>
					<stop  offset="0.8364" style="stop-color:#000104"/>
					<stop  offset="1" style="stop-color:#000000"/>
				</radialGradient>
				<path style="fill:url(#SVGID_00000125589525501414816210000017482856652905330572_);" d="M1589.4,1028.1
					c35.2-223.3,301.2-366.4,595.1-320c293.9,46.3,503.5,264.4,468.3,487.7c-35.1,222.4-301.6,365.4-595.5,319
					C1763.4,1468.4,1554.4,1250.5,1589.4,1028.1z"/>
				
					<radialGradient id="SVGID_00000137817323481660807460000010977010075439590580_" cx="18530.8418" cy="-28738.0723" r="3021.6489" gradientTransform="matrix(-0.3457 -5.450000e-02 4.880000e-02 -0.3097 9550.4609 -6958.1504)" gradientUnits="userSpaceOnUse">
					<stop  offset="0" style="stop-color:#001E94"/>
					<stop  offset="3.069310e-02" style="stop-color:#031C8B"/>
					<stop  offset="0.2329" style="stop-color:#161257"/>
					<stop  offset="0.3849" style="stop-color:#220B36"/>
					<stop  offset="0.4683" style="stop-color:#26092A"/>
					<stop  offset="0.5066" style="stop-color:#210824"/>
					<stop  offset="0.6714" style="stop-color:#0F0310"/>
					<stop  offset="0.8363" style="stop-color:#040104"/>
					<stop  offset="1" style="stop-color:#000000"/>
				</radialGradient>
				<path style="opacity:0.4;fill:url(#SVGID_00000137817323481660807460000010977010075439590580_);" d="M1103.6,635.2
					c59.2-375.7,506.8-616.5,1001.3-538.5c494.5,78,847.2,445,788,820.7c-59,374.2-507.6,614.8-1002,536.8
					C1396.4,1376.2,1044.6,1009.5,1103.6,635.2z"/>
				
					<radialGradient id="SVGID_00000047023018534836898300000017273110411062200741_" cx="22380.5508" cy="-30221.6875" r="1795.6987" gradientTransform="matrix(-0.3457 -5.450000e-02 4.880000e-02 -0.3097 9550.4609 -6958.1504)" gradientUnits="userSpaceOnUse">
					<stop  offset="0" style="stop-color:#001E94"/>
					<stop  offset="9.831011e-03" style="stop-color:#001D91"/>
					<stop  offset="0.1743" style="stop-color:#001465"/>
					<stop  offset="0.3405" style="stop-color:#000D41"/>
					<stop  offset="0.5064" style="stop-color:#000724"/>
					<stop  offset="0.6717" style="stop-color:#000310"/>
					<stop  offset="0.8364" style="stop-color:#000104"/>
					<stop  offset="1" style="stop-color:#000000"/>
				</radialGradient>
				<path style="fill:url(#SVGID_00000047023018534836898300000017273110411062200741_);" d="M-40.7,1005.3
					c35.2-223.3,301.2-366.4,595.1-320c293.9,46.3,503.5,264.4,468.3,487.7c-35.1,222.4-301.6,365.4-595.5,319
					C133.3,1445.7-75.7,1227.7-40.7,1005.3z"/>
				
					<radialGradient id="SVGID_00000037666474611035318280000009250417409206735017_" cx="4593.0942" cy="3489.0337" r="2655.3994" gradientTransform="matrix(0.35 0 0 0.2654 591.9496 -714.201)" gradientUnits="userSpaceOnUse">
					<stop  offset="0" style="stop-color:#0098E9"/>
					<stop  offset="7.873189e-02" style="stop-color:#0081C6"/>
					<stop  offset="0.2094" style="stop-color:#005F92"/>
					<stop  offset="0.3422" style="stop-color:#004265"/>
					<stop  offset="0.4747" style="stop-color:#002A41"/>
					<stop  offset="0.6069" style="stop-color:#001824"/>
					<stop  offset="0.7386" style="stop-color:#000B10"/>
					<stop  offset="0.8698" style="stop-color:#000304"/>
					<stop  offset="1" style="stop-color:#000000"/>
				</radialGradient>
				<path style="fill:url(#SVGID_00000037666474611035318280000009250417409206735017_);" d="M2794.4,382.2
					c0,334.3-355.7,604.7-795.7,604.7c-440,0-796.5-270.4-796.5-604.7c0-333,356.5-603.3,796.5-603.3
					C2438.7-221.1,2794.4,49.1,2794.4,382.2z"/>
				
					<radialGradient id="SVGID_00000076576900322367599230000016602103432869122460_" cx="2139.9626" cy="2296.8396" r="814.5324" gradientTransform="matrix(0.8923 -0.1411 0.1121 0.709 -1350.7445 -1076.7809)" gradientUnits="userSpaceOnUse">
					<stop  offset="8.292679e-02" style="stop-color:#00053F"/>
					<stop  offset="0.3058" style="stop-color:#000324"/>
					<stop  offset="0.5377" style="stop-color:#000110"/>
					<stop  offset="0.7696" style="stop-color:#000004"/>
					<stop  offset="1" style="stop-color:#000000"/>
				</radialGradient>
				<path style="fill:url(#SVGID_00000076576900322367599230000016602103432869122460_);" d="M89.5,364.7
					c55.4,350.2,425.7,582.6,827,519.2c401.4-63.5,681.9-398.8,626.5-749c-55.4-350.2-425.6-582.7-827-519.2
					C314.6-320.9,34.1,14.4,89.5,364.7z"/>
			</g>
			
				<linearGradient id="SVGID_00000152223639494722017000000008249771459186945175_" gradientUnits="userSpaceOnUse" x1="10585.0645" y1="16017.0977" x2="13633.752" y2="16017.0977" gradientTransform="matrix(0.264 0.3206 -0.1378 0.1135 -10.8023 -4844.5337)">
				<stop  offset="0" style="stop-color:#FFFFFF"/>
				<stop  offset="8.734455e-02" style="stop-color:#C6C6C6"/>
				<stop  offset="0.1787" style="stop-color:#929292"/>
				<stop  offset="0.2716" style="stop-color:#656565"/>
				<stop  offset="0.3643" style="stop-color:#414141"/>
				<stop  offset="0.4568" style="stop-color:#242424"/>
				<stop  offset="0.5489" style="stop-color:#101010"/>
				<stop  offset="0.6407" style="stop-color:#040404"/>
				<stop  offset="0.7317" style="stop-color:#000000"/>
			</linearGradient>
			
				<path style="clip-path:url(#SVGID_00000027590253902246958400000013864958087859875720_);fill:url(#SVGID_00000152223639494722017000000008249771459186945175_);" d="
				M1381.6,1344.2c-116.3,95.8-390.2-45-612.7-315.1C546.5,759,460.4,462.6,576.7,366.8c115.9-95.4,390.2,46,612.6,316.1
				C1411.8,953,1497.5,1248.7,1381.6,1344.2z"/>
			
				<linearGradient id="SVGID_00000088840138953111618080000016760433962340513195_" gradientUnits="userSpaceOnUse" x1="11730.748" y1="85018.2266" x2="14779.0283" y2="85018.2266" gradientTransform="matrix(0.2096 0.3586 -3.960000e-02 2.320000e-02 1105.0651 -5793.7681)">
				<stop  offset="0" style="stop-color:#FFFFFF"/>
				<stop  offset="8.734455e-02" style="stop-color:#C6C6C6"/>
				<stop  offset="0.1787" style="stop-color:#929292"/>
				<stop  offset="0.2716" style="stop-color:#656565"/>
				<stop  offset="0.3643" style="stop-color:#414141"/>
				<stop  offset="0.4568" style="stop-color:#242424"/>
				<stop  offset="0.5489" style="stop-color:#101010"/>
				<stop  offset="0.6407" style="stop-color:#040404"/>
				<stop  offset="0.7317" style="stop-color:#000000"/>
			</linearGradient>
			
				<path style="opacity:0.7;clip-path:url(#SVGID_00000027590253902246958400000013864958087859875720_);fill:url(#SVGID_00000088840138953111618080000016760433962340513195_);" d="
				M836.2,1478.3c-33.4,19.5-203.2-208.8-379.8-510.9C279.7,665.4,163.7,404.8,197.1,385.3c33.3-19.5,203.4,209.5,380,511.5
				C753.7,1198.9,869.5,1458.9,836.2,1478.3z"/>
		</g>
		<g>
			<path class="st35" d="M360.8,749.4l-16.9-25.5l-0.1-0.1l-5.9,14.6l-3.1-1.3l7.9-19.4l2.3,0.9l16.8,25.3l0.1,0.1l6.5-16.1l3.1,1.3
				l-8.5,21L360.8,749.4z"/>
			<path class="st35" d="M369.4,695.1c9.7,4.4,12.2,12.7,9,19.9c-3.4,7.5-11.6,10.1-20.1,6.2c-9-4.1-12.3-12.3-8.9-19.9
				C352.9,693.7,361,691.3,369.4,695.1z M360,717.3c6.1,2.7,13,1.9,15.6-3.8c2.6-5.8-1.2-11.5-7.7-14.4c-5.6-2.6-12.8-2.3-15.6,3.8
				C349.5,709,353.7,714.5,360,717.3z"/>
			<path class="st35" d="M384,666.4c9.5,4.9,11.6,13.2,8,20.3c-3.7,7.3-12,9.6-20.4,5.3c-8.8-4.5-11.8-12.9-8-20.3
				C367.5,664.2,375.8,662.3,384,666.4z M373.5,688.2c5.9,3,12.8,2.5,15.7-3.1c2.9-5.7-0.7-11.5-7-14.7c-5.5-2.8-12.7-2.9-15.8,3.1
				C363.4,679.3,367.4,685.1,373.5,688.2z"/>
			<path class="st35" d="M401.6,639.9c-3.9-2-8.5-4.3-11.9-6.3l-0.1,0.1c2.6,2.7,5.3,5.8,8.3,9.3l10.3,12.3l-1.5,2.6l-15.3-3
				c-4.5-0.9-8.6-1.8-12.3-2.9l0,0.1c3.3,2,7.7,4.8,11.6,7.4l11.1,7.4l-1.9,3.3l-25.9-17.4l2.5-4.4l15.7,2.9c4,0.8,7.4,1.6,10.6,2.5
				l0.1-0.1c-2.3-2.2-4.7-4.9-7.4-8.1l-10.3-12.3l2.5-4.4l27.9,13.8l-2,3.4L401.6,639.9z"/>
			<path class="st35" d="M398.1,612.5l2.2-3.4l23.2,15.2l7.3-11.1l2.8,1.8l-9.5,14.5L398.1,612.5z"/>
			<path class="st35" d="M433.2,590l-6.9,9.9l9.2,6.4l7.7-11l2.8,1.9l-10,14.3l-25.5-17.8l9.6-13.8l2.8,1.9l-7.3,10.5l8,5.6l6.9-9.9
				L433.2,590z"/>
			<path class="st35" d="M448.8,593.2L424,574.5l2.6-3.5l18.6,1.5c4.3,0.4,8,0.9,11.4,1.6l0-0.1c-3.5-2.2-6.6-4.4-10.5-7.3
				l-10.4-7.8l2.3-3l24.8,18.8l-2.4,3.2l-18.5-1.6c-4.1-0.4-8.1-0.8-11.8-1.6l0,0.1c3.3,2.2,6.3,4.4,10.4,7.5l10.6,8L448.8,593.2z"
				/>
			<path class="st35" d="M463,566.7c2-0.7,4.4-2.1,6.1-4.3c2.6-3.2,2.4-6.4,0-8.4c-2.2-1.8-4.6-1.6-8.5,0.6c-4.6,2.8-8.6,3.5-12,0.8
				c-3.7-3.1-4-8.4-0.2-13.1c2-2.5,4-3.8,5.5-4.4l1.8,2.9c-1.1,0.4-3.1,1.5-4.9,3.6c-2.7,3.3-1.7,6.1-0.1,7.5c2.2,1.8,4.6,1.3,8.6-1
				c4.9-2.8,8.6-3.2,12.1-0.4c3.7,3,4.7,8.4,0,14.1c-1.9,2.3-4.6,4.3-6.6,4.9L463,566.7z"/>
		</g>
		<g>
			<path class="st35" d="M1661.2,1234.6c4.2,1.2,9.2,2.6,12.8,3.9l0-0.1c-3.1-2.2-6.3-4.7-9.9-7.5l-12.5-10.1l1-2.9l15.6,0
				c4.6,0,8.8,0.1,12.6,0.5l0-0.1c-3.6-1.3-8.5-3.3-12.8-5l-12.3-5.1l1.2-3.6l28.7,12.1l-1.7,4.8l-15.9,0.1c-4,0-7.6-0.1-10.9-0.4
				l0,0.1c2.7,1.8,5.6,3.9,8.8,6.5l12.4,10.1l-1.7,4.8l-30-8.2l1.3-3.7L1661.2,1234.6z"/>
			<path class="st35" d="M1652,1247.9l-7.9-6.6l1.5-3.9l25,21.3l-1.8,4.5l-32.8-1.6l1.6-4l10.3,0.5L1652,1247.9z M1651.2,1258.5
				l9.4,0.5c2.1,0.1,4,0.4,5.9,0.6l0-0.1c-1.5-1.1-3.1-2.3-4.7-3.5l-7.2-6.1L1651.2,1258.5z"/>
			<path class="st35" d="M1662.4,1278c-0.7,2.4-1.6,5.1-2.9,8.1c-2.4,5.3-5.2,8.5-8.7,9.9c-3.4,1.5-7.4,1.5-12-0.5
				c-4.6-2.1-7.8-5.2-9.2-9c-1.5-3.8-0.9-8.9,1.5-14.4c1.2-2.6,2.3-4.7,3.3-6.5L1662.4,1278z M1635.7,1270.5
				c-0.6,0.9-1.2,2.2-1.9,3.6c-3.5,7.8-1,14,6.6,17.5c6.7,3,12.6,1.1,16.1-6.6c0.8-1.9,1.3-3.4,1.5-4.5L1635.7,1270.5z"/>
			<path class="st35" d="M1627.8,1314.1l5.4-10.8l-10-5l-6,12.1l-3-1.5l7.7-15.7l27.9,13.8l-7.4,15.1l-3-1.5l5.7-11.5l-8.8-4.3
				l-5.3,10.8L1627.8,1314.1z"/>
			<path class="st35" d="M1632.6,1340.2l-27.3-14.8l1.9-3.5l27.3,14.8L1632.6,1340.2z"/>
			<path class="st35" d="M1602.1,1331.3l26.9,15.6l-2.2,3.8l-18.6,0.7c-4.3,0.2-8,0.1-11.5-0.3l0,0.1c3.8,1.8,7.1,3.6,11.3,6
				l11.2,6.5l-1.9,3.3l-26.9-15.6l2-3.5l18.6-0.6c4.1-0.1,8.2-0.1,11.9,0.2l0-0.1c-3.5-1.8-6.8-3.6-11.2-6.2l-11.5-6.7
				L1602.1,1331.3z"/>
			<path class="st35" d="M1604.3,1387.7l-2.2,3.4l-17.5-11.3c-6.9-4.5-6.9-9.3-3.9-13.8c0.8-1.2,2.1-2.6,3-3.2l2.4,2.3
				c-0.7,0.5-1.6,1.4-2.3,2.5c-2,3-1.8,5.7,3.4,9L1604.3,1387.7z"/>
			<path class="st35" d="M1577.6,1389.2l-6.2-8.2l2.4-3.4l19.5,26.4l-2.8,4l-31.6-9l2.4-3.5l9.9,2.9L1577.6,1389.2z M1574.4,1399.4
				l9.1,2.6c2.1,0.6,3.8,1.3,5.6,1.9l0.1-0.1c-1.3-1.4-2.5-2.9-3.7-4.5l-5.6-7.6L1574.4,1399.4z"/>
			<path class="st35" d="M1580.9,1421.1c-0.9,1.7-2.3,3.9-4.2,6.5c-2.4,3.1-4.9,4.9-7.4,5.3c-2.2,0.4-4.6-0.1-6.8-1.8
				c-2.2-1.7-3.5-3.7-3.8-6c-0.5-3.1,0.7-6.5,3.1-9.6c0.7-0.9,1.4-1.8,2.2-2.4l-9.9-7.6l2.5-3.2L1580.9,1421.1z M1566.6,1415.1
				c-0.7,0.6-1.5,1.4-2.3,2.4c-3,3.8-2.9,7.6,0.5,10.2c3.3,2.5,6.6,1.4,9.3-2.1c1.1-1.4,1.8-2.5,2.1-3.2L1566.6,1415.1z"/>
			<path class="st35" d="M1548.6,1428.7l-5.6-8.6l2.6-3.2l17.6,27.7l-3,3.8l-30.9-11.2l2.7-3.3l9.7,3.5L1548.6,1428.7z
				 M1544.7,1438.6l8.9,3.2c2,0.7,3.7,1.5,5.4,2.3l0.1-0.1c-1.1-1.5-2.3-3.1-3.4-4.7l-5.1-8L1544.7,1438.6z"/>
			<path class="st35" d="M1526.6,1440.4l23.4,20.5l-2.9,3.3l-18.4-2.8c-4.3-0.7-7.9-1.5-11.3-2.4l0,0.1c3.4,2.5,6.3,4.9,9.9,8.1
				l9.8,8.6l-2.5,2.8l-23.4-20.5l2.7-3.1l18.4,2.9c4,0.6,8.1,1.4,11.6,2.5l0.1-0.1c-3.1-2.4-6-4.8-9.9-8.2l-10-8.7L1526.6,1440.4z"
				/>
		</g>
		<g>
			<path class="st35" d="M785,1647.7l-0.8,2.3l-4,1.9c-9.6,4.3-14.2,6.8-15.7,11.1c-1,2.9-0.5,6,3.7,7.5c2.6,0.9,5.2,0.3,6.8-0.3
				l0.3,3.1c-2.5,1-5.8,1.2-9,0.1c-6.1-2.1-7.2-7.2-5.8-11.3c1.8-5.2,7.1-8.1,15.1-11.8l3-1.3l0-0.1l-12.7-4.5l1.1-3.2L785,1647.7z"
				/>
			<path class="st35" d="M738.8,1646.9c3.7-9.5,9.3-13.4,15.5-10.9c5.5,2.1,7.2,8.7,3.6,18c-3.7,9.4-9.7,12.9-15.4,10.7
				C736.6,1662.4,735.3,1655.8,738.8,1646.9z M754.1,1652.4c2.8-7.3,2.2-12.3-1.2-13.6c-3.9-1.5-7.5,2.3-10.3,9.4
				c-2.7,6.9-2.7,12.1,1.2,13.6C747.1,1663.1,751.1,1660,754.1,1652.4z"/>
			<path class="st35" d="M716.8,1636l1.2-2.7l10.4,4.6l-1.2,2.7L716.8,1636z"/>
			<path class="st35" d="M707.7,1621.6c-0.7-1.2-2.6-3.4-5.1-4.6c-4.7-2.3-7.6,0-8.6,2.2c-1.8,3.8,0.8,7.1,4.3,8.8l2,1l-1.3,2.7
				l-2-1c-2.6-1.3-6.7-1.6-8.2,1.6c-1.1,2.2-0.6,4.7,2.7,6.4c2.2,1.1,4.7,1.1,6.3,0.9l-0.3,3.1c-1.9,0.3-5.2,0-8.1-1.4
				c-5.3-2.6-6.2-6.9-4.6-10.2c1.4-2.8,4.2-4.3,8.1-3.9l0-0.1c-3-2.3-4.5-6.1-2.6-9.9c2.1-4.3,7.3-6.4,13.8-3.3
				c3,1.5,5.2,3.7,6.1,5.3L707.7,1621.6z"/>
			<path class="st35" d="M661.4,1622.5l10.1,5.4l4.6-6.3c-0.7-0.2-1.3-0.5-2.2-1c-2-1.1-3.8-2.6-4.9-4.5c-1.4-2.3-1.9-5.5-0.2-8.8
				c2.8-5.2,8.9-6.8,14.7-3.8c2.9,1.5,4.9,3.7,5.7,5.1l-2.3,2.2c-0.8-1.2-2.5-3.2-4.9-4.5c-3.4-1.8-7.4-1.1-9.3,2.4
				c-1.8,3.4-0.8,7.1,4.5,9.9c1.5,0.8,2.8,1.3,3.8,1.7l-8.5,11.8l-12.7-6.7L661.4,1622.5z"/>
			<path class="st35" d="M651.1,1605c-1.2,2-2.2,3.6-3,5.2l-3-1.9l1.7-3.2l-0.1-0.1c-2.2,1.2-5,1.8-8.1-0.2
				c-2.6-1.6-3.6-4.4-3.1-7.1l-0.1,0c-1.2,0.7-2.5,1.1-3.6,1.2c-1.7,0.2-3.2-0.1-5-1.2c-2.5-1.5-5.2-5.5-1.2-12.1l6.9-11.2l3.4,2.1
				l-6.6,10.8c-2.2,3.7-2.2,6.7,0.5,8.4c2,1.2,4.4,0.7,6-0.6c0.4-0.4,0.9-0.9,1.3-1.6l7.2-11.8l3.4,2.1l-7,11.4
				c-1.9,3-1.9,6,0.8,7.7c2.2,1.3,4.8,0.6,6.4-0.8c0.5-0.4,0.9-0.9,1.3-1.5l7-11.5l3.4,2.1L651.1,1605z"/>
			<path class="st35" d="M618,1584.6c-1.3,1.9-2.3,3.5-3.3,5.1l-2.9-2l1.9-3.1l-0.1-0.1c-2.2,1-5.1,1.5-8.1-0.6
				c-2.5-1.7-3.4-4.6-2.7-7.3l-0.1-0.1c-1.3,0.6-2.5,0.9-3.7,1c-1.7,0.1-3.2-0.3-5-1.5c-2.4-1.7-4.9-5.8-0.5-12.1l7.5-10.8l3.3,2.3
				l-7.2,10.4c-2.4,3.5-2.6,6.5,0.1,8.4c1.9,1.3,4.3,0.9,6-0.3c0.5-0.4,1-0.9,1.4-1.5l7.8-11.3l3.3,2.3l-7.6,11
				c-2,2.9-2.2,5.9,0.4,7.7c2.1,1.4,4.8,0.8,6.4-0.5c0.5-0.4,1-0.9,1.4-1.4l7.6-11.1l3.3,2.3L618,1584.6z"/>
		</g>
		<g>
			<path class="st35" d="M1324.9,362.1L1324.9,362.1l-6,0.1l0.7-3.1l7.4-0.2l3.1,1.6l-13.6,26.7l-3.5-1.8L1324.9,362.1z"/>
			<path class="st35" d="M1327.5,390.3c0.8-1.5,2.4-2,3.8-1.2c1.4,0.8,1.8,2.3,1,3.8c-0.8,1.4-2.3,2-3.8,1.2
				C1327.1,393.3,1326.7,391.7,1327.5,390.3z M1335.2,376c0.8-1.5,2.4-2,3.8-1.2c1.4,0.8,1.8,2.3,1,3.8c-0.8,1.4-2.3,2-3.8,1.2
				C1334.8,379,1334.4,377.4,1335.2,376z"/>
			<path class="st35" d="M1334.3,396.6l1.2-2.2l4.3-1.1c10.3-2.5,15.2-4.2,17.5-8.1c1.5-2.6,1.6-5.8-2.3-8c-2.4-1.3-5-1.3-6.8-1
				l0.3-3.1c2.7-0.5,5.9-0.2,8.9,1.6c5.6,3.2,5.8,8.4,3.6,12.1c-2.7,4.8-8.4,6.7-16.9,8.9l-3.2,0.7l0,0.1l11.7,6.7l-1.7,2.9
				L1334.3,396.6z"/>
			<path class="st35" d="M1356.2,406.5c0.9-1.5,2.5-1.9,3.9-1.1c1.4,0.8,1.7,2.4,0.8,3.9c-0.9,1.4-2.4,1.9-3.9,1.1
				C1355.6,409.5,1355.3,407.9,1356.2,406.5z"/>
			<path class="st35" d="M1366.5,406.6c2-3.2,5.4-4.2,9.3-3.6l0-0.1c-2-3.1-1.8-6.1-0.4-8.2c2.5-4,7.7-4.6,12.1-1.8
				c4.9,3.1,5.4,7.8,3.4,10.9c-1.4,2.1-3.9,3.8-7.9,3.3l-0.1,0.1c2.4,3.3,2.9,6.7,0.9,9.8c-2.8,4.4-8.5,5-13.3,1.9
				C1365.3,415.4,1364.1,410.3,1366.5,406.6z M1380.2,415.1c2-3.1,0.8-5.9-2-9.1c-3.5-1-6.3-0.1-7.9,2.3c-1.8,2.5-1.2,6,2,8
				C1375.3,418.3,1378.5,417.7,1380.2,415.1z M1378.8,396.4c-1.6,2.5-0.6,5.1,1.9,7.7c2.6,0.6,5.3,0.2,6.8-2.1
				c1.3-2,1.4-4.9-1.7-6.8C1382.9,393.4,1380.2,394.3,1378.8,396.4z"/>
		</g>
		<g class="st8">
			<path d="M1003,260.5c-405.2,0-733.8,328.5-733.8,733.7c0,405.2,328.5,733.7,733.8,733.7c405.2,0,733.7-328.5,733.7-733.7
				C1736.8,589,1408.3,260.5,1003,260.5z"/>
			<path class="st9" d="M1003,264C599.7,264,272.7,591,272.7,994.3c0,403.3,327,730.3,730.3,730.3c403.3,0,730.3-327,730.3-730.3
				C1733.3,591,1406.3,264,1003,264z"/>
			<path class="st10" d="M1003,267.5c-401.4,0-726.8,325.4-726.8,726.8c0,401.4,325.4,726.8,726.8,726.8
				c401.4,0,726.8-325.4,726.8-726.8C1729.8,592.9,1404.4,267.5,1003,267.5z"/>
			<path class="st11" d="M1003,271c-399.5,0-723.3,323.8-723.3,723.3c0,399.5,323.8,723.3,723.3,723.3
				c399.5,0,723.3-323.8,723.3-723.3C1726.3,594.8,1402.5,271,1003,271z"/>
			<path class="st12" d="M1003,274.5c-397.5,0-719.8,322.3-719.8,719.8c0,397.5,322.3,719.8,719.8,719.8
				c397.5,0,719.8-322.3,719.8-719.8C1722.8,596.7,1400.6,274.5,1003,274.5z"/>
			<path class="st13" d="M1003,277.9c-395.6,0-716.3,320.7-716.3,716.3c0,395.6,320.7,716.3,716.3,716.3
				c395.6,0,716.3-320.7,716.3-716.3C1719.3,598.6,1398.6,277.9,1003,277.9z"/>
			<path class="st14" d="M1003,281.4c-393.7,0-712.8,319.1-712.8,712.8c0,393.7,319.2,712.8,712.8,712.8
				c393.7,0,712.8-319.2,712.8-712.8C1715.9,600.6,1396.7,281.4,1003,281.4z"/>
			<path class="st15" d="M1003,284.9c-391.8,0-709.4,317.6-709.4,709.4c0,391.8,317.6,709.4,709.4,709.4
				c391.8,0,709.4-317.6,709.4-709.4C1712.4,602.5,1394.8,284.9,1003,284.9z"/>
			<path class="st16" d="M1003,288.4c-389.8,0-705.9,316-705.9,705.9c0,389.8,316,705.9,705.9,705.9c389.8,0,705.9-316,705.9-705.9
				C1708.9,604.4,1392.9,288.4,1003,288.4z"/>
			<path class="st17" d="M1003,291.9c-387.9,0-702.4,314.5-702.4,702.4c0,387.9,314.5,702.4,702.4,702.4
				c387.9,0,702.4-314.5,702.4-702.4C1705.4,606.3,1390.9,291.9,1003,291.9z"/>
			<path class="st18" d="M1003,295.4c-386,0-698.9,312.9-698.9,698.9c0,386,312.9,698.9,698.9,698.9c386,0,698.9-312.9,698.9-698.9
				C1701.9,608.3,1389,295.4,1003,295.4z"/>
			<path class="st19" d="M1003,298.9c-384.1,0-695.4,311.3-695.4,695.4S619,1689.7,1003,1689.7c384.1,0,695.4-311.3,695.4-695.4
				S1387.1,298.9,1003,298.9z"/>
		</g>
	</g>
</g>
</svg>
